<?xml version="1.0" encoding="UTF-8" standalone="no"?>
<!-- Created with Inkscape (http://www.inkscape.org/) -->

<svg
   xmlns:dc="http://purl.org/dc/elements/1.1/"
   xmlns:cc="http://creativecommons.org/ns#"
   xmlns:rdf="http://www.w3.org/1999/02/22-rdf-syntax-ns#"
   xmlns:svg="http://www.w3.org/2000/svg"
   xmlns="http://www.w3.org/2000/svg"
   xmlns:sodipodi="http://sodipodi.sourceforge.net/DTD/sodipodi-0.dtd"
   xmlns:inkscape="http://www.inkscape.org/namespaces/inkscape"
   version="1.1"
   id="svg2"
   width="86.666664"
   height="85.333336"
   viewBox="0 0 86.666664 85.333336"
   sodipodi:docname="cancel.svg"
   inkscape:version="0.92.4 5da689c313, 2019-01-14">
  <metadata
     id="metadata8">
    <rdf:RDF>
      <cc:Work
         rdf:about="">
        <dc:format>image/svg+xml</dc:format>
        <dc:type
           rdf:resource="http://purl.org/dc/dcmitype/StillImage" />
        <dc:title />
      </cc:Work>
    </rdf:RDF>
  </metadata>
  <defs
     id="defs6">
    <filter
       inkscape:collect="always"
       style="color-interpolation-filters:sRGB"
       id="filter882"
       x="-0.24002511"
       width="1.4800502"
       y="-0.2399749"
       height="1.4799498">
      <feGaussianBlur
         inkscape:collect="always"
         stdDeviation="8.446866"
         id="feGaussianBlur884" />
    </filter>
  </defs>
  <sodipodi:namedview
     pagecolor="#ffffff"
     bordercolor="#666666"
     borderopacity="1"
     objecttolerance="10"
     gridtolerance="10"
     guidetolerance="10"
     inkscape:pageopacity="0"
     inkscape:pageshadow="2"
     inkscape:window-width="1920"
     inkscape:window-height="1080"
     id="namedview4"
     showgrid="false"
     inkscape:zoom="11.0625"
     inkscape:cx="46.717397"
     inkscape:cy="37.099799"
     inkscape:window-x="0"
     inkscape:window-y="0"
     inkscape:window-maximized="0"
     inkscape:current-layer="svg2" />
  <path
     inkscape:connector-curvature="0"
     id="path880"
     d="M 30.425261,83.190185 C 0.21519439,72.213133 -8.6054056,34.959864 13.719599,12.634855 22.480068,3.8743849 30.407935,0.73232886 43.75141,0.73232886 c 13.343476,0 21.271342,3.14205604 30.031811,11.90252614 8.760469,8.76047 11.902525,16.688337 11.902525,30.031813 0,13.343476 -3.142056,21.271343 -11.902525,30.031813 C 62.827974,83.653729 44.143773,88.174908 30.425261,83.190185 Z M 35.14748,54.561119 c 8.615328,-8.890408 9.012248,-8.920262 17.085389,-1.285021 6.584764,6.227596 10.185207,8.233263 10.185207,5.673781 0,-0.577567 -2.999999,-4.005012 -6.666666,-7.616544 -3.666667,-3.611532 -6.666666,-7.511532 -6.666666,-8.666667 0,-1.155135 2.999999,-5.055135 6.666666,-8.666667 3.666667,-3.611532 6.666666,-7.038977 6.666666,-7.616544 0,-2.559482 -3.600443,-0.553815 -10.185207,5.673781 -8.073141,7.635241 -8.470061,7.605387 -17.085389,-1.285021 -4.848651,-5.003464 -8.729402,-6.954536 -8.729402,-4.38876 0,0.577567 2.999999,4.005012 6.666666,7.616544 3.666667,3.611532 6.666666,7.511532 6.666666,8.666667 0,1.155135 -2.999999,5.055135 -6.666666,8.666667 -3.666667,3.611532 -6.666666,7.038977 -6.666666,7.616544 0,2.565776 3.880751,0.614704 8.729402,-4.38876 z"
     style="display:none;fill:#263945;stroke:#263945;stroke-width:1.33333337;stroke-opacity:1;filter:url(#filter882)"
     transform="matrix(0.67905004,0,0,0.69623806,13.947148,13.052978)" />
  <ellipse
     style="display:inline;opacity:1;fill:#ffffff;fill-opacity:1;stroke:#263945;stroke-width:0.68759036;stroke-opacity:1"
     id="path886"
     cx="44.577293"
     cy="42.88501"
     rx="17.494171"
     ry="19.447464" />
  <path
     style="fill:#263945;stroke-width:0.91678715"
     d="M 34.607423,70.973151 C 14.093276,63.33051 8.103647,37.393366 23.263442,21.849845 c 5.948797,-6.099373 11.332216,-8.286992 20.393103,-8.286992 9.060888,0 14.444306,2.187619 20.393102,8.286992 5.948797,6.099373 8.082411,11.619055 8.082411,20.909291 0,9.290236 -2.133614,14.809919 -8.082411,20.909292 -7.439161,7.62746 -20.126668,10.775277 -29.442224,7.304723 z m 3.206623,-19.932645 c 5.850239,-6.189841 6.119767,-6.210626 11.601834,-0.894681 4.471384,4.33589 6.916265,5.732311 6.916265,3.950303 0,-0.402125 -2.037149,-2.788442 -4.527,-5.302928 -2.48985,-2.514486 -4.526999,-5.229815 -4.526999,-6.034064 0,-0.804249 2.037149,-3.519577 4.526999,-6.034063 2.489851,-2.514486 4.527,-4.900804 4.527,-5.302928 0,-1.782009 -2.444881,-0.385587 -6.916265,3.950302 -5.482067,5.315946 -5.751595,5.29516 -11.601834,-0.89468 -3.292477,-3.483602 -5.927701,-4.842013 -5.927701,-3.055622 0,0.402124 2.037149,2.788442 4.527,5.302928 2.48985,2.514486 4.527,5.229814 4.527,6.034063 0,0.804249 -2.03715,3.519578 -4.527,6.034064 -2.489851,2.514486 -4.527,4.900803 -4.527,5.302928 0,1.786391 2.635224,0.42798 5.927701,-3.055622 z"
     id="path859"
     inkscape:connector-curvature="0" />
</svg>
