<?xml version="1.0" encoding="UTF-8" standalone="no"?>
<svg
   xmlns:dc="http://purl.org/dc/elements/1.1/"
   xmlns:cc="http://creativecommons.org/ns#"
   xmlns:rdf="http://www.w3.org/1999/02/22-rdf-syntax-ns#"
   xmlns:svg="http://www.w3.org/2000/svg"
   xmlns="http://www.w3.org/2000/svg"
   viewBox="0 0 86.666664 85.333336"
   height="85.333336"
   width="86.666664"
   id="svg2"
   version="1.1">
  <metadata
     id="metadata8">
    <rdf:RDF>
      <cc:Work
         rdf:about="">
        <dc:format>image/svg+xml</dc:format>
        <dc:type
           rdf:resource="http://purl.org/dc/dcmitype/StillImage" />
        <dc:title></dc:title>
      </cc:Work>
    </rdf:RDF>
  </metadata>
  <defs
     id="defs6">
    <filter
       height="1.480624"
       y="-0.240312"
       width="1.4793776"
       x="-0.23968881"
       id="filter823"
       style="color-interpolation-filters:sRGB">
      <feGaussianBlur
         id="feGaussianBlur825"
         stdDeviation="8.4469288" />
    </filter>
  </defs>
  <path
     transform="matrix(0.67812898,0,0,0.70300928,14.028007,12.627227)"
     style="display:none;fill:#949eac;stroke:#949eac;stroke-width:1.33333337;stroke-opacity:1;filter:url(#filter823)"
     d="M 30.772132,82.861826 C 17.415357,78.002903 8.5804217,69.561083 3.9729287,57.255069 -3.6185753,36.979137 5.4092077,14.082068 24.864454,4.2681458 31.684143,0.82805099 34.093859,0.33306479 43.999999,0.33746359 c 9.668535,0.00429 12.320489,0.5233675 18.053527,3.53366691 8.250863,4.3323556 17.135956,13.7483045 20.892751,22.1410245 3.901199,8.715313 3.901199,23.870549 0,32.585862 -3.788407,8.463343 -12.700966,17.862995 -20.892751,22.034596 -8.59195,4.375381 -22.631461,5.375882 -31.281394,2.229213 z M 54.338886,66.338507 c 6.084552,-2.761843 12.327779,-8.616974 12.327779,-11.561451 0,-1.283664 -1.977162,-1.805303 -6.842622,-1.805303 -8.206542,0 -14.399552,-3.380367 -18.577348,-10.140183 -3.504339,-5.670139 -3.842988,-15.549952 -0.738764,-21.552858 2.54402,-4.919593 1.422394,-6.007755 -4.455047,-4.322127 C 29.521978,18.829624 23.264002,24.229221 20.13649,30.6898 9.3935947,52.881662 32.022955,76.467946 54.338886,66.338507 Z M 32.379043,60.847297 C 26.008503,56.767004 22.358974,50.013522 22.358974,42.305086 c 0,-7.030566 3.829615,-14.936739 8.426861,-17.397111 2.356531,-1.261178 2.547497,-0.841694 2.547497,5.5959 0,12.11816 7.896921,23.554658 18.159756,26.299363 8.652474,2.314029 2.934708,6.854126 -8.579889,6.812719 -3.998547,-0.01437 -7.789552,-1.010757 -10.534156,-2.76866 z"
     id="path821" />
  <ellipse
     ry="24.148569"
     rx="23.416523"
     cy="43.384876"
     cx="43.08411"
     id="path819"
     style="opacity:1;fill:#ffffff;fill-opacity:1;stroke:#263945;stroke-width:0.69045705;stroke-opacity:1" />
  <path
     id="path817"
     d="M 34.895482,70.879859 C 25.837866,67.463991 19.84664,61.529314 16.722166,52.878072 11.574147,38.623903 17.696148,22.527051 30.889314,15.627773 c 4.624629,-2.418419 6.258727,-2.766399 12.976368,-2.763306 6.556514,0.003 8.354881,0.367932 12.24262,2.4842 5.595149,3.045687 11.620388,9.665186 14.16798,15.565346 2.645516,6.126946 2.645516,16.781218 0,22.908163 -2.569029,5.949809 -8.612893,12.557852 -14.16798,15.490526 -5.82645,3.075933 -15.34705,3.779295 -21.21282,1.567157 z M 50.876781,59.263813 c 4.126111,-1.941601 8.359824,-6.057813 8.359824,-8.127808 0,-0.902427 -1.340771,-1.269144 -4.64018,-1.269144 -5.565094,0 -9.764754,-2.37643 -12.597838,-7.128643 -2.376394,-3.98616 -2.606042,-10.931761 -0.500977,-15.151859 1.725173,-3.45852 0.964566,-4.223508 -3.021097,-3.038496 -4.428797,1.316764 -8.672511,5.112731 -10.793368,9.654578 -7.285069,15.601085 8.060556,32.182461 23.193636,25.061372 z M 35.985175,55.403441 c -4.320048,-2.868484 -6.794899,-7.616244 -6.794899,-13.035346 0,-4.942553 2.596973,-10.500666 5.714498,-12.230331 1.598032,-0.88662 1.727532,-0.591718 1.727532,3.93397 0,8.519179 5.355131,16.559143 12.314657,18.488696 5.867493,1.626784 1.99011,4.818514 -5.818271,4.789405 -2.711531,-0.0101 -5.282321,-0.710572 -7.143517,-1.946394 z"
     style="fill:#949eac;stroke-width:0.92060947" />
</svg>
