<?xml version="1.0" encoding="UTF-8" standalone="no"?>
<svg
   xmlns:dc="http://purl.org/dc/elements/1.1/"
   xmlns:cc="http://creativecommons.org/ns#"
   xmlns:rdf="http://www.w3.org/1999/02/22-rdf-syntax-ns#"
   xmlns:svg="http://www.w3.org/2000/svg"
   xmlns="http://www.w3.org/2000/svg"
   xmlns:sodipodi="http://sodipodi.sourceforge.net/DTD/sodipodi-0.dtd"
   xmlns:inkscape="http://www.inkscape.org/namespaces/inkscape"
   viewBox="0 0 86.666664 85.333336"
   height="85.333336"
   width="86.666664"
   id="svg2"
   version="1.1"
   sodipodi:docname="lock_blur.svg"
   inkscape:version="0.92.4 5da689c313, 2019-01-14">
  <sodipodi:namedview
     pagecolor="#ffffff"
     bordercolor="#666666"
     borderopacity="1"
     objecttolerance="10"
     gridtolerance="10"
     guidetolerance="10"
     inkscape:pageopacity="0"
     inkscape:pageshadow="2"
     inkscape:window-width="1920"
     inkscape:window-height="1080"
     id="namedview10"
     showgrid="false"
     inkscape:zoom="2.7656249"
     inkscape:cx="-27.536727"
     inkscape:cy="42.666668"
     inkscape:window-x="0"
     inkscape:window-y="0"
     inkscape:window-maximized="0"
     inkscape:current-layer="svg2" />
  <metadata
     id="metadata8">
    <rdf:RDF>
      <cc:Work
         rdf:about="">
        <dc:format>image/svg+xml</dc:format>
        <dc:type
           rdf:resource="http://purl.org/dc/dcmitype/StillImage" />
        <dc:title />
      </cc:Work>
    </rdf:RDF>
  </metadata>
  <defs
     id="defs6">
    <filter
       height="1.481481"
       y="-0.2407405"
       width="1.4785281"
       x="-0.23926404"
       id="filter829"
       style="color-interpolation-filters:sRGB">
      <feGaussianBlur
         id="feGaussianBlur831"
         stdDeviation="8.4562476" />
    </filter>
  </defs>
  <path
     id="path817"
     d="M 30.312268,82.467021 C 0.28185087,71.555246 -8.9415991,35.029764 12.739975,12.879594 22.207196,3.2077627 29.867458,0.01278596 43.638417,-0.00766784 56.627611,-0.02696084 62.39198,2.2816103 72.408385,11.514411 c 17.690374,16.306418 17.690374,44.551768 0,60.858186 -3.21101,2.959807 -8.447849,6.718943 -11.637418,8.353636 -7.681516,3.93687 -22.140576,4.76324 -30.458699,1.740788 z M 54.107264,67.625435 C 63.177341,60.853645 65.206147,51.445424 59.849547,40.996621 58.13595,37.654009 56.97175,32.909792 56.97175,29.269349 c 0,-8.486359 -4.175288,-12.659179 -12.666667,-12.659179 -8.306707,0 -12.649581,4.194029 -12.708279,12.272727 -0.02685,3.696748 -1.206224,7.618132 -3.326502,11.060607 -4.72737,7.67534 -4.599545,17.582591 0.302012,23.407761 1.980311,2.353465 5.430311,5.107361 7.666667,6.119767 5.102477,2.309909 13.458437,1.44683 17.868283,-1.845597 z M 35.927477,63.862566 c -3.622359,-2.537199 -6.957485,-8.704294 -6.950743,-12.852848 0.0083,-5.123438 4.714318,-11.323426 9.891824,-13.032158 9.784472,-3.229167 19.419818,3.927405 19.431541,14.432611 0.0074,6.622032 -7.260547,13.533334 -14.231674,13.533334 -2.843495,0 -6.506922,-0.936423 -8.140948,-2.080939 z m 10.946392,-9.34499 c 2.869829,-2.869829 0.41827,-7.569552 -3.645379,-6.988317 -3.351747,0.479408 -4.53944,4.330427 -2.203581,7.144964 2.050774,2.471032 3.253492,2.438821 5.84896,-0.156647 z M 36.258249,31.201057 c -3.258809,-5.272864 5.760946,-12.364202 12.07013,-9.489544 3.296008,1.501761 5.600763,6.937541 4.023539,9.489544 -0.478984,0.775012 -4.10006,1.409113 -8.046835,1.409113 -3.946774,0 -7.56785,-0.634101 -8.046834,-1.409113 z"
     style="display:inline;fill:#683cb7;stroke:#683cb7;stroke-width:1.33333337;stroke-opacity:1;filter:url(#filter829)"
     transform="matrix(0.68754739,0,0,0.69419748,13.518224,12.887557)" />
  <path
     transform="matrix(0.68754739,0,0,0.69419748,13.518224,12.887557)"
     style="display:inline;fill:#683cb7;stroke:#683cb7;stroke-width:1.33333337;stroke-opacity:1;filter:url(#filter829)"
     d="M 30.312268,82.467021 C 0.28185087,71.555246 -8.9415991,35.029764 12.739975,12.879594 22.207196,3.2077627 29.867458,0.01278596 43.638417,-0.00766784 56.627611,-0.02696084 62.39198,2.2816103 72.408385,11.514411 c 17.690374,16.306418 17.690374,44.551768 0,60.858186 -3.21101,2.959807 -8.447849,6.718943 -11.637418,8.353636 -7.681516,3.93687 -22.140576,4.76324 -30.458699,1.740788 z M 54.107264,67.625435 C 63.177341,60.853645 65.206147,51.445424 59.849547,40.996621 58.13595,37.654009 56.97175,32.909792 56.97175,29.269349 c 0,-8.486359 -4.175288,-12.659179 -12.666667,-12.659179 -8.306707,0 -12.649581,4.194029 -12.708279,12.272727 -0.02685,3.696748 -1.206224,7.618132 -3.326502,11.060607 -4.72737,7.67534 -4.599545,17.582591 0.302012,23.407761 1.980311,2.353465 5.430311,5.107361 7.666667,6.119767 5.102477,2.309909 13.458437,1.44683 17.868283,-1.845597 z M 35.927477,63.862566 c -3.622359,-2.537199 -6.957485,-8.704294 -6.950743,-12.852848 0.0083,-5.123438 4.714318,-11.323426 9.891824,-13.032158 9.784472,-3.229167 19.419818,3.927405 19.431541,14.432611 0.0074,6.622032 -7.260547,13.533334 -14.231674,13.533334 -2.843495,0 -6.506922,-0.936423 -8.140948,-2.080939 z m 10.946392,-9.34499 c 2.869829,-2.869829 0.41827,-7.569552 -3.645379,-6.988317 -3.351747,0.479408 -4.53944,4.330427 -2.203581,7.144964 2.050774,2.471032 3.253492,2.438821 5.84896,-0.156647 z M 36.258249,31.201057 c -3.258809,-5.272864 5.760946,-12.364202 12.07013,-9.489544 3.296008,1.501761 5.600763,6.937541 4.023539,9.489544 -0.478984,0.775012 -4.10006,1.409113 -8.046835,1.409113 -3.946774,0 -7.56785,-0.634101 -8.046834,-1.409113 z"
     id="path827" />
  <ellipse
     ry="25.728451"
     rx="23.493145"
     cy="42.632153"
     cx="42.232067"
     id="path825"
     style="opacity:1;fill:#ffffff;fill-opacity:1;stroke:#949eac;stroke-width:0.69086444;stroke-opacity:1" />
  <path
     id="path823"
     d="M 34.359344,70.135955 C 13.712009,62.561028 7.3704505,37.20513 22.27756,21.828538 c 6.509163,-6.714161 11.775956,-8.932105 21.244143,-8.946304 8.930687,-0.01339 12.893963,1.589211 19.780717,7.998598 12.16297,11.319874 12.16297,30.927725 0,42.247599 -2.207722,2.054691 -5.808297,4.664273 -8.001277,5.799073 -5.281406,2.732965 -15.222695,3.306629 -20.941799,1.208451 z M 50.719532,59.832963 c 6.236107,-4.700959 7.631008,-11.232123 3.948091,-18.485655 -1.178179,-2.320433 -1.978622,-5.613857 -1.978622,-8.141043 0,-5.891209 -2.870708,-8.78797 -8.708933,-8.78797 -5.711255,0 -8.697187,2.911484 -8.737544,8.519696 -0.01846,2.566273 -0.829337,5.288488 -2.287128,7.678245 -3.250291,5.328202 -3.162405,12.205791 0.207647,16.249609 1.361558,1.63377 3.733597,3.545517 5.271197,4.248327 3.508195,1.603533 9.253314,1.004386 12.285292,-1.281209 z M 38.220067,57.220789 c -2.490544,-1.761317 -4.783601,-6.042499 -4.778966,-8.922415 0.0057,-3.556678 3.241317,-7.860694 6.801098,-9.046891 6.727288,-2.24168 13.352045,2.726395 13.360105,10.019082 0.0051,4.596998 -4.99197,9.394807 -9.78495,9.394807 -1.955037,0 -4.473817,-0.650063 -5.597287,-1.444583 z M 45.74623,50.73352 c 1.973143,-1.992228 0.28758,-5.254764 -2.506371,-4.851272 -2.304485,0.332804 -3.12108,3.006172 -1.515066,4.960016 1.410004,1.715385 2.23693,1.693024 4.021437,-0.108744 z M 38.447488,34.547252 c -2.240586,-3.660409 3.960923,-8.583198 8.298786,-6.587618 2.266162,1.042519 3.85079,4.816024 2.766374,6.587618 -0.329324,0.538011 -2.818985,0.978202 -5.53258,0.978202 -2.713594,0 -5.203256,-0.440191 -5.53258,-0.978202 z"
     style="fill:#683cb7;stroke-width:0.92115259" />
</svg>
