<?xml version="1.0" encoding="UTF-8" standalone="no"?>
<svg
   xmlns:dc="http://purl.org/dc/elements/1.1/"
   xmlns:cc="http://creativecommons.org/ns#"
   xmlns:rdf="http://www.w3.org/1999/02/22-rdf-syntax-ns#"
   xmlns:svg="http://www.w3.org/2000/svg"
   xmlns="http://www.w3.org/2000/svg"
   xmlns:sodipodi="http://sodipodi.sourceforge.net/DTD/sodipodi-0.dtd"
   xmlns:inkscape="http://www.inkscape.org/namespaces/inkscape"
   viewBox="0 0 86.666664 85.333336"
   height="85.333336"
   width="86.666664"
   id="svg2"
   version="1.1"
   sodipodi:docname="logout_blur.svg"
   inkscape:version="0.92.4 5da689c313, 2019-01-14">
  <sodipodi:namedview
     pagecolor="#ffffff"
     bordercolor="#666666"
     borderopacity="1"
     objecttolerance="10"
     gridtolerance="10"
     guidetolerance="10"
     inkscape:pageopacity="0"
     inkscape:pageshadow="2"
     inkscape:window-width="1920"
     inkscape:window-height="1080"
     id="namedview10"
     showgrid="false"
     inkscape:zoom="2.7656249"
     inkscape:cx="-27.536727"
     inkscape:cy="42.666668"
     inkscape:window-x="0"
     inkscape:window-y="0"
     inkscape:window-maximized="0"
     inkscape:current-layer="svg2" />
  <metadata
     id="metadata8">
    <rdf:RDF>
      <cc:Work
         rdf:about="">
        <dc:format>image/svg+xml</dc:format>
        <dc:type
           rdf:resource="http://purl.org/dc/dcmitype/StillImage" />
        <dc:title />
      </cc:Work>
    </rdf:RDF>
  </metadata>
  <defs
     id="defs6">
    <filter
       height="1.4802853"
       y="-0.24014266"
       width="1.479715"
       x="-0.23985751"
       id="filter827"
       style="color-interpolation-filters:sRGB">
      <feGaussianBlur
         id="feGaussianBlur829"
         stdDeviation="8.4455238" />
    </filter>
  </defs>
  <path
     id="path818"
     d="M 31.999999,84.164808 C 19.888846,80.182891 8.6752644,70.161429 3.7964659,58.959599 0.02153539,50.292276 0.02153539,35.04106 3.7964659,26.373737 7.4238563,18.045167 16.304262,8.5970493 24.613138,4.2262837 30.437778,1.1623145 32.932491,0.69085862 43.333332,0.68850499 56.864737,0.68544295 62.341829,2.7744278 72.268295,11.724416 85.30784,23.481247 89.264476,44.365897 81.540495,60.666669 77.414368,69.374492 70.033291,76.881489 61.060078,81.49648 54.867814,84.681207 38.220004,86.209827 31.999999,84.164808 Z M 56.120865,65.271674 c 2.865221,-1.461727 6.860161,-5.152015 8.877646,-8.20064 3.078015,-4.651196 3.668154,-6.968591 3.668154,-14.404366 0,-7.435775 -0.590139,-9.75317 -3.668154,-14.404366 C 51.332206,7.6111206 19.331006,16.299381 17.638017,41.120577 16.217837,61.942066 37.036791,75.007642 56.120865,65.271674 Z M 32.518082,61.460302 C 25.400323,57.12002 21.999999,51.010794 21.999999,42.562879 c 0,-12.608269 8.779052,-21.234546 21.600453,-21.224561 4.031517,0.0032 8.007522,0.985379 10.745066,2.65448 4.989298,3.042012 9.642213,9.956912 9.649496,14.340537 0.0047,2.80169 -0.563764,3 -8.598945,3 -4.732161,0 -10.197889,-0.726258 -12.146062,-1.613904 -3.046942,-1.38828 -3.794092,-1.26933 -5.344408,0.850853 -2.635251,3.60392 -0.06325,8.043075 3.875226,6.688464 1.587212,-0.545911 6.935779,-1.251688 11.885703,-1.568396 10.535407,-0.674079 12.162893,0.930881 8.062803,7.951206 -5.759813,9.862163 -19.728618,13.601083 -29.211249,7.818744 z"
     style="display:inline;fill:#13adf3;stroke:#13adf3;stroke-width:1.33333337;stroke-opacity:1;filter:url(#filter827)"
     transform="matrix(0.69493851,0,0,0.68600805,13.184139,13.467439)" />
  <path
     transform="matrix(0.69493851,0,0,0.68600805,13.184139,13.467439)"
     style="display:inline;fill:#13adf3;stroke:#13adf3;stroke-width:1.33333337;stroke-opacity:1;filter:url(#filter827)"
     d="M 31.999999,84.164808 C 19.888846,80.182891 8.6752644,70.161429 3.7964659,58.959599 0.02153539,50.292276 0.02153539,35.04106 3.7964659,26.373737 7.4238563,18.045167 16.304262,8.5970493 24.613138,4.2262837 30.437778,1.1623145 32.932491,0.69085862 43.333332,0.68850499 56.864737,0.68544295 62.341829,2.7744278 72.268295,11.724416 85.30784,23.481247 89.264476,44.365897 81.540495,60.666669 77.414368,69.374492 70.033291,76.881489 61.060078,81.49648 54.867814,84.681207 38.220004,86.209827 31.999999,84.164808 Z M 56.120865,65.271674 c 2.865221,-1.461727 6.860161,-5.152015 8.877646,-8.20064 3.078015,-4.651196 3.668154,-6.968591 3.668154,-14.404366 0,-7.435775 -0.590139,-9.75317 -3.668154,-14.404366 C 51.332206,7.6111206 19.331006,16.299381 17.638017,41.120577 16.217837,61.942066 37.036791,75.007642 56.120865,65.271674 Z M 32.518082,61.460302 C 25.400323,57.12002 21.999999,51.010794 21.999999,42.562879 c 0,-12.608269 8.779052,-21.234546 21.600453,-21.224561 4.031517,0.0032 8.007522,0.985379 10.745066,2.65448 4.989298,3.042012 9.642213,9.956912 9.649496,14.340537 0.0047,2.80169 -0.563764,3 -8.598945,3 -4.732161,0 -10.197889,-0.726258 -12.146062,-1.613904 -3.046942,-1.38828 -3.794092,-1.26933 -5.344408,0.850853 -2.635251,3.60392 -0.06325,8.043075 3.875226,6.688464 1.587212,-0.545911 6.935779,-1.251688 11.885703,-1.568396 10.535407,-0.674079 12.162893,0.930881 8.062803,7.951206 -5.759813,9.862163 -19.728618,13.601083 -29.211249,7.818744 z"
     id="path821" />
  <ellipse
     ry="23.316523"
     rx="23.745695"
     cy="43.233212"
     cx="41.955379"
     id="path819"
     style="opacity:1;fill:#ffffff;fill-opacity:1;stroke:#683cb7;stroke-width:0.69045883;stroke-opacity:1" />
  <path
     id="path817"
     d="M 35.422171,71.205175 C 27.005664,68.473548 19.212914,61.598744 15.822449,53.914199 c -2.623344,-5.945854 -2.623344,-16.408311 0,-22.354164 2.520814,-5.713466 8.69215,-12.194951 14.466307,-15.193331 4.047767,-2.101908 5.781439,-2.42533 13.009384,-2.426945 9.403495,-0.0021 13.209737,1.43096 20.10802,7.570724 9.061682,8.065281 11.811301,22.392319 6.443609,33.57478 -2.867405,5.973636 -7.996799,11.123497 -14.23263,14.289418 -4.303243,2.184748 -15.872447,3.233394 -20.194968,1.830494 z M 52.184689,58.244333 c 1.991153,-1.002756 4.76739,-3.534324 6.169418,-5.625705 2.139032,-3.190758 2.549142,-4.78051 2.549142,-9.881511 0,-5.101002 -0.41011,-6.690753 -2.549142,-9.881511 -9.497241,-14.166877 -31.736107,-8.20666 -32.912631,8.82088 -0.986937,14.283709 13.480955,23.2468 26.743213,16.567847 z M 35.782206,55.629701 c -4.946404,-2.977468 -7.30942,-7.168446 -7.30942,-12.963784 0,-8.649374 6.100901,-14.56707 15.010986,-14.56022 2.801657,0.0022 5.564736,0.675978 7.46716,1.820995 3.467256,2.086844 6.700745,6.830522 6.705807,9.837724 0.0033,1.921981 -0.391782,2.058024 -5.975738,2.058024 -3.288561,0 -7.086906,-0.498219 -8.440767,-1.107151 -2.117437,-0.952372 -2.63666,-0.870771 -3.714034,0.583692 -1.831338,2.472318 -0.04396,5.517614 2.693043,4.58834 1.103015,-0.3745 4.81994,-0.858668 8.259833,-1.075933 7.32146,-0.462423 8.452463,0.638592 5.603152,5.454592 -4.002716,6.765523 -13.710176,9.330452 -20.300022,5.363721 z"
     style="fill:#13adf3;stroke-width:0.9206118" />
</svg>
