<?xml version="1.0" encoding="UTF-8" standalone="no"?>
<svg
   xmlns:dc="http://purl.org/dc/elements/1.1/"
   xmlns:cc="http://creativecommons.org/ns#"
   xmlns:rdf="http://www.w3.org/1999/02/22-rdf-syntax-ns#"
   xmlns:svg="http://www.w3.org/2000/svg"
   xmlns="http://www.w3.org/2000/svg"
   viewBox="0 0 86.666664 85.333336"
   height="85.333336"
   width="86.666664"
   id="svg2"
   version="1.1">
  <metadata
     id="metadata8">
    <rdf:RDF>
      <cc:Work
         rdf:about="">
        <dc:format>image/svg+xml</dc:format>
        <dc:type
           rdf:resource="http://purl.org/dc/dcmitype/StillImage" />
        <dc:title></dc:title>
      </cc:Work>
    </rdf:RDF>
  </metadata>
  <defs
     id="defs6">
    <filter
       height="1.4804089"
       y="-0.24020445"
       width="1.4795918"
       x="-0.2397959"
       id="filter823"
       style="color-interpolation-filters:sRGB">
      <feGaussianBlur
         id="feGaussianBlur825"
         stdDeviation="8.4402411" />
    </filter>
  </defs>
  <path
     transform="matrix(0.7006108,0,0,0.69152537,12.961506,13.106693)"
     style="display:none;fill:#fec313;stroke:#fec313;stroke-width:1.33333337;stroke-opacity:1;filter:url(#filter823)"
     d="M 29.415024,82.584562 C -6.0160396,69.924483 -8.9872036,20.582207 24.685832,4.0466188 31.235306,0.83041307 33.896336,0.30771112 43.638417,0.32379042 c 9.744249,0.0160829 12.308577,0.53018095 18.288766,3.66654408 8.856274,4.6447517 15.41387,11.2139475 19.990624,20.0259845 3.098896,5.966583 3.61248,8.566688 3.61248,18.288767 0,9.722079 -0.513584,12.322184 -3.61248,18.288767 -7.583046,14.600322 -20.481208,23.117518 -36.27939,23.9568 -6.727104,0.35738 -11.257307,-0.19163 -16.223393,-1.966091 z M 53.176086,66.195729 c 4.45925,-2.386518 1.40973,-3.606102 -7.273976,-2.909058 -10.055118,0.807128 -14.950174,-1.230019 -20.528102,-8.543059 -3.074256,-4.030558 -3.735591,-6.232628 -3.735591,-12.438526 0,-12.771331 8.723855,-21.333334 21.736609,-21.333334 7.683262,0 14.102517,3.697489 17.997442,10.366524 2.09094,3.580184 2.242293,4.722076 0.848493,6.401505 -1.407106,1.695458 -1.203512,2.536932 1.193859,4.934302 l 2.890263,2.890262 2.890262,-2.890262 c 2.292301,-2.292301 2.564233,-3.283104 1.314392,-4.78907 C 69.643008,36.840668 67.5477,33.357952 65.853497,30.145644 53.60695,6.9254799 19.069443,14.471401 17.276435,40.758995 c -0.844996,12.388621 5.498834,21.770492 17.772415,26.283566 5.418208,1.992311 13.530356,1.613344 18.127236,-0.846832 z"
     id="path821" />
  <ellipse
     ry="23.504049"
     rx="24.192844"
     cy="42.111691"
     cx="43.740883"
     id="path819"
     style="opacity:1;fill:#ffffff;fill-opacity:1;stroke:#13adf3;stroke-width:0.69605327;stroke-opacity:1" />
  <path
     id="path817"
     d="M 33.569989,70.216013 C 8.7466036,61.461247 6.664974,27.339812 30.256667,15.905033 c 4.588632,-2.224088 6.452978,-2.58555 13.278385,-2.57443 6.826926,0.01112 8.623522,0.366633 12.813307,2.535508 6.204801,3.211964 10.799124,7.754729 14.005647,13.848476 2.17112,4.126044 2.530943,5.924082 2.530943,12.647147 0,6.723064 -0.359823,8.521103 -2.530943,12.647146 C 65.041242,65.105373 56.004651,70.99523 44.936274,71.575615 40.223192,71.822752 37.049283,71.443098 33.569989,70.216013 Z M 50.217246,58.882719 c 3.124199,-1.650337 0.987672,-2.493711 -5.096226,-2.011687 -7.044724,0.55815 -10.474253,-0.850589 -14.38221,-5.907742 -2.153857,-2.787233 -2.617195,-4.31002 -2.617195,-8.601556 0,-8.8317 6.112027,-14.752542 15.228903,-14.752542 5.382976,0 9.880375,2.556907 12.609202,7.168714 1.464935,2.475788 1.570975,3.265436 0.594463,4.426803 -0.985833,1.172453 -0.843193,1.754353 0.836431,3.412195 l 2.024949,1.99869 2.024949,-1.99869 c 1.606011,-1.585184 1.796529,-2.270349 0.920877,-3.311763 -0.607239,-0.722191 -2.075235,-3.130577 -3.262212,-5.35197 -8.580063,-16.057333 -32.777413,-10.839137 -34.033614,7.339402 -0.592013,8.567045 3.852542,15.054847 12.451546,18.175752 3.796055,1.377734 9.479513,1.115669 12.700137,-0.585606 z"
     style="fill:#fec313;stroke-width:0.92807102" />
</svg>
