<?xml version="1.0" encoding="UTF-8" standalone="no"?>
<svg
   xmlns:dc="http://purl.org/dc/elements/1.1/"
   xmlns:cc="http://creativecommons.org/ns#"
   xmlns:rdf="http://www.w3.org/1999/02/22-rdf-syntax-ns#"
   xmlns:svg="http://www.w3.org/2000/svg"
   xmlns="http://www.w3.org/2000/svg"
   xmlns:sodipodi="http://sodipodi.sourceforge.net/DTD/sodipodi-0.dtd"
   xmlns:inkscape="http://www.inkscape.org/namespaces/inkscape"
   viewBox="0 0 86.666664 85.333336"
   height="85.333336"
   width="86.666664"
   id="svg2"
   version="1.1"
   sodipodi:docname="shutdown_blur.svg"
   inkscape:version="0.92.4 5da689c313, 2019-01-14">
  <sodipodi:namedview
     pagecolor="#ffffff"
     bordercolor="#666666"
     borderopacity="1"
     objecttolerance="10"
     gridtolerance="10"
     guidetolerance="10"
     inkscape:pageopacity="0"
     inkscape:pageshadow="2"
     inkscape:window-width="1920"
     inkscape:window-height="1080"
     id="namedview10"
     showgrid="false"
     inkscape:zoom="2.7656249"
     inkscape:cx="-27.536727"
     inkscape:cy="42.666668"
     inkscape:window-x="0"
     inkscape:window-y="0"
     inkscape:window-maximized="0"
     inkscape:current-layer="svg2" />
  <metadata
     id="metadata8">
    <rdf:RDF>
      <cc:Work
         rdf:about="">
        <dc:format>image/svg+xml</dc:format>
        <dc:type
           rdf:resource="http://purl.org/dc/dcmitype/StillImage" />
        <dc:title />
      </cc:Work>
    </rdf:RDF>
  </metadata>
  <defs
     id="defs6">
    <filter
       height="1.4806958"
       y="-0.2403479"
       width="1.4793062"
       x="-0.2396531"
       id="filter823"
       style="color-interpolation-filters:sRGB">
      <feGaussianBlur
         id="feGaussianBlur825"
         stdDeviation="8.4512968" />
    </filter>
  </defs>
  <path
     id="path818"
     d="M 31.098899,83.500621 C 23.422233,80.980857 16.965527,76.78505 11.917859,71.036074 0.40475081,57.923367 -2.1793758,39.455481 5.3817098,24.324409 9.9961564,15.090083 17.54059,7.6590485 26.503459,3.5201377 c 8.907259,-4.11323092 26.480785,-3.9597133 34.62909,0.3025104 15.232197,7.9676729 24.592939,22.7527649 24.592939,38.8440199 0,16.04863 -9.480036,31.059072 -24.433865,38.687947 -7.154831,3.650121 -22.325282,4.728392 -30.192724,2.146006 z M 49.999998,67.86163 C 65.840295,63.534755 73.687178,46.383101 66.78251,31.17855 63.835699,24.68947 55.753752,17.96421 52.433545,19.238293 c -1.860451,0.713921 -1.181089,1.860534 3.840083,6.481206 10.06965,9.266473 11.485697,20.779944 3.763201,30.597507 -7.800909,9.917251 -25.467441,10.093508 -33.146863,0.330704 -7.656031,-9.733066 -6.653608,-21.445452 2.589933,-30.260969 2.852721,-2.720626 5.186767,-5.270626 5.186767,-5.666667 0,-1.756653 -5.291642,-0.469988 -8.524055,2.072628 -12.02395,9.458042 -11.571421,31.034574 0.84508,40.293252 7.921327,5.906736 14.144,7.19811 23.012307,4.775676 z M 45.062532,25.204134 c -0.217727,-5.42894 -0.995867,-9.8708 -1.7292,-9.8708 -1.462379,0 -2.601927,17.174892 -1.355127,20.424004 1.769523,4.611299 3.460463,-1.174354 3.084327,-10.553204 z"
     style="display:inline;fill:#f3493c;stroke:#f3493c;stroke-width:1.33333337;stroke-opacity:1;filter:url(#filter823)"
     transform="matrix(0.69103699,0,0,0.67300277,13.411416,13.970495)" />
  <path
     transform="matrix(0.69103699,0,0,0.67300277,13.411416,13.970495)"
     style="display:inline;fill:#f3493c;stroke:#f3493c;stroke-width:1.33333337;stroke-opacity:1;filter:url(#filter823)"
     d="M 31.098899,83.500621 C 23.422233,80.980857 16.965527,76.78505 11.917859,71.036074 0.40475081,57.923367 -2.1793758,39.455481 5.3817098,24.324409 9.9961564,15.090083 17.54059,7.6590485 26.503459,3.5201377 c 8.907259,-4.11323092 26.480785,-3.9597133 34.62909,0.3025104 15.232197,7.9676729 24.592939,22.7527649 24.592939,38.8440199 0,16.04863 -9.480036,31.059072 -24.433865,38.687947 -7.154831,3.650121 -22.325282,4.728392 -30.192724,2.146006 z M 49.999998,67.86163 C 65.840295,63.534755 73.687178,46.383101 66.78251,31.17855 63.835699,24.68947 55.753752,17.96421 52.433545,19.238293 c -1.860451,0.713921 -1.181089,1.860534 3.840083,6.481206 10.06965,9.266473 11.485697,20.779944 3.763201,30.597507 -7.800909,9.917251 -25.467441,10.093508 -33.146863,0.330704 -7.656031,-9.733066 -6.653608,-21.445452 2.589933,-30.260969 2.852721,-2.720626 5.186767,-5.270626 5.186767,-5.666667 0,-1.756653 -5.291642,-0.469988 -8.524055,2.072628 -12.02395,9.458042 -11.571421,31.034574 0.84508,40.293252 7.921327,5.906736 14.144,7.19811 23.012307,4.775676 z M 45.062532,25.204134 c -0.217727,-5.42894 -0.995867,-9.8708 -1.7292,-9.8708 -1.462379,0 -2.601927,17.174892 -1.355127,20.424004 1.769523,4.611299 3.460463,-1.174354 3.084327,-10.553204 z"
     id="path821" />
  <ellipse
     ry="25.672964"
     rx="23.737318"
     cy="42.320263"
     cx="43.895126"
     id="path819"
     style="opacity:1;fill:#ffffff;fill-opacity:1;stroke:#fec313;stroke-width:0.68196028;stroke-opacity:1" />
  <path
     id="path817"
     d="M 34.901906,70.166645 C 29.597046,68.470836 25.135223,65.647047 21.647098,61.77797 13.691114,52.953082 11.905387,40.524143 17.130377,30.34089 20.31913,24.126163 25.532613,19.125056 31.726287,16.339558 37.881533,13.571342 50.025489,13.67466 55.656269,16.543148 66.182281,21.905414 72.6509,31.855822 72.6509,42.685281 c 0,10.800773 -6.551056,20.902842 -16.884705,26.037096 -4.944253,2.456541 -15.427595,3.182221 -20.864289,1.444268 z M 47.963265,59.64156 C 58.909496,56.729562 64.331982,45.186451 59.560601,34.953746 57.524246,30.586577 51.939322,26.060458 49.644936,26.91792 c -1.285641,0.480471 -0.816176,1.252144 2.653639,4.361869 6.958501,6.236362 7.937042,13.98496 2.600511,20.592207 -5.390716,6.674338 -17.598944,6.792959 -22.905708,0.222565 -5.290601,-6.55038 -4.59789,-14.432848 1.789739,-20.365716 1.971336,-1.830989 3.584248,-3.547146 3.584248,-3.813682 0,-1.182233 -3.65672,-0.316304 -5.890437,1.394884 -8.308994,6.365288 -7.99628,20.886354 0.583981,27.11747 5.47393,3.97525 9.774028,4.844348 15.902356,3.214043 z M 44.551293,30.932947 c -0.150457,-3.653691 -0.688181,-6.643075 -1.194941,-6.643075 -1.010558,0 -1.798028,11.55875 -0.936443,13.745411 1.222806,3.103417 2.391308,-0.790344 2.131384,-7.102336 z"
     style="fill:#f3493c;stroke-width:0.90928036" />
</svg>
