<?xml version="1.0" encoding="UTF-8" standalone="no"?>
<svg
   xmlns:dc="http://purl.org/dc/elements/1.1/"
   xmlns:cc="http://creativecommons.org/ns#"
   xmlns:rdf="http://www.w3.org/1999/02/22-rdf-syntax-ns#"
   xmlns:svg="http://www.w3.org/2000/svg"
   xmlns="http://www.w3.org/2000/svg"
   viewBox="0 0 86.666664 85.333336"
   height="85.333336"
   width="86.666664"
   id="svg2"
   version="1.1">
  <metadata
     id="metadata8">
    <rdf:RDF>
      <cc:Work
         rdf:about="">
        <dc:format>image/svg+xml</dc:format>
        <dc:type
           rdf:resource="http://purl.org/dc/dcmitype/StillImage" />
        <dc:title></dc:title>
      </cc:Work>
    </rdf:RDF>
  </metadata>
  <defs
     id="defs6">
    <filter
       height="1.4803078"
       y="-0.2401539"
       width="1.4796926"
       x="-0.2398463"
       id="filter823"
       style="color-interpolation-filters:sRGB">
      <feGaussianBlur
         id="feGaussianBlur825"
         stdDeviation="8.4367105" />
    </filter>
  </defs>
  <path
     transform="matrix(0.69024986,0,0,0.67269836,13.339747,14.032042)"
     style="display:none;fill:#51b054;stroke:#51b054;stroke-width:1.33333337;stroke-opacity:1;filter:url(#filter823)"
     d="M 30.50971,83.573551 C 11.944444,76.627548 0.94511525,61.454043 0.85616003,42.666668 0.79780295,30.341632 5.0693249,20.374362 13.896697,12.237575 23.913102,3.0047742 29.677471,0.69620334 42.666665,0.71549602 56.437624,0.73594985 64.097886,3.9309265 73.565107,13.602758 93.624506,34.095689 87.004567,68.811547 60.666665,81.243931 52.496645,85.100457 37.655186,86.246957 30.50971,83.573551 Z M 57.99143,64.339858 C 72.622491,54.181583 72.970166,31.848017 58.658632,21.480795 41.134064,8.7860619 17.333333,20.98777 17.333333,42.666668 c 0,21.268522 23.32935,33.704456 40.658097,21.67319 z M 33.31253,61.531187 C 28.142647,58.783907 22.358777,51.254166 22.970311,48.067151 23.304165,46.327273 26.583481,45.941729 43.68348,45.63194 66.637666,45.216093 67.110042,45.470801 60.748085,54.833264 54.80905,63.573338 42.712717,66.526451 33.31253,61.531187 Z M 23.215945,39.508221 c -1.314688,-3.426023 2.022152,-9.966536 7.035645,-13.790515 9.501859,-7.247421 23.851095,-4.997219 30.496495,4.782366 5.219017,7.680475 4.502178,9.498697 -3.748087,9.506828 -3.85,0.0037 -12.834495,0.393269 -19.965546,0.8655 -11.366313,0.7527 -13.070754,0.584435 -13.818507,-1.364179 z"
     id="path821" />
  <ellipse
     ry="23.593851"
     rx="21.21446"
     cy="42.247368"
     cx="43.539154"
     id="path819"
     style="opacity:1;fill:#ffffff;fill-opacity:1;stroke:#f3493c;stroke-width:0.68141758;stroke-opacity:1" />
  <path
     id="path817"
     d="M 34.39907,70.251833 C 21.584398,65.579268 13.992113,55.372076 13.930712,42.73384 c -0.04028,-8.291032 2.908136,-14.995998 9.001228,-20.469601 6.913823,-6.21089 10.892678,-7.763862 19.858467,-7.750884 9.505402,0.01376 14.792897,2.163015 21.327645,8.66924 13.845998,13.785561 9.276586,37.138862 -8.903148,45.502106 -5.639355,2.594279 -15.88367,3.365528 -20.815834,1.567132 z M 53.368324,57.313359 C 63.467412,50.479904 63.707394,35.456151 53.82886,28.482138 41.732529,19.942412 25.304078,28.150481 25.304078,42.73384 c 0,14.3073 16.103081,22.672932 28.064246,14.579519 z M 36.333716,55.423971 c -3.568511,-1.848091 -7.560826,-6.913335 -7.138715,-9.057235 0.230443,-1.170413 2.49399,-1.429768 14.297262,-1.638163 15.844124,-0.279739 16.170182,-0.108397 11.778842,6.189716 -4.099419,5.879433 -12.448911,7.865988 -18.937389,4.505682 z M 29.36455,40.609158 c -0.907463,-2.30468 1.39579,-6.704473 4.856353,-9.276857 6.558657,-4.875328 16.463215,-3.361621 21.050202,3.21709 3.602425,5.166643 3.107627,6.389758 -2.587117,6.395227 -2.657462,0.0025 -8.859008,0.264552 -13.781215,0.582221 -7.845596,0.50634 -9.022087,0.393148 -9.538223,-0.917681 z"
     style="fill:#51b054;stroke-width:0.90855682" />
</svg>
