<?xml version="1.0" encoding="UTF-8" standalone="no"?>
<svg
   xmlns:dc="http://purl.org/dc/elements/1.1/"
   xmlns:cc="http://creativecommons.org/ns#"
   xmlns:rdf="http://www.w3.org/1999/02/22-rdf-syntax-ns#"
   xmlns:svg="http://www.w3.org/2000/svg"
   xmlns="http://www.w3.org/2000/svg"
   xmlns:sodipodi="http://sodipodi.sourceforge.net/DTD/sodipodi-0.dtd"
   xmlns:inkscape="http://www.inkscape.org/namespaces/inkscape"
   width="24"
   height="24"
   version="1.1"
   id="svg6"
   sodipodi:docname="cancel.svg"
   inkscape:version="0.92.4 5da689c313, 2019-01-14">
  <metadata
     id="metadata12">
    <rdf:RDF>
      <cc:Work
         rdf:about="">
        <dc:format>image/svg+xml</dc:format>
        <dc:type
           rdf:resource="http://purl.org/dc/dcmitype/StillImage" />
      </cc:Work>
    </rdf:RDF>
  </metadata>
  <defs
     id="defs10">
    <filter
       inkscape:collect="always"
       style="color-interpolation-filters:sRGB"
       id="filter834"
       x="-0.24"
       width="1.48"
       y="-0.24"
       height="1.48">
      <feGaussianBlur
         inkscape:collect="always"
         stdDeviation="2"
         id="feGaussianBlur836" />
    </filter>
  </defs>
  <sodipodi:namedview
     pagecolor="#ffffff"
     bordercolor="#666666"
     borderopacity="1"
     objecttolerance="10"
     gridtolerance="10"
     guidetolerance="10"
     inkscape:pageopacity="0"
     inkscape:pageshadow="2"
     inkscape:window-width="1920"
     inkscape:window-height="1080"
     id="namedview8"
     showgrid="false"
     inkscape:zoom="9.8333333"
     inkscape:cx="-7.9322034"
     inkscape:cy="12"
     inkscape:window-x="0"
     inkscape:window-y="0"
     inkscape:window-maximized="0"
     inkscape:current-layer="svg6" />
  <g
     style="display:none;stroke:#f44336;stroke-opacity:1;filter:url(#filter834)"
     transform="matrix(0.81887307,0,0,0.81887307,2.1735227,2.1735227)"
     id="g842">
    <circle
       style="fill:#f44336;stroke:#f44336;stroke-opacity:1"
       cx="12"
       cy="12"
       r="10"
       id="circle838" />
    <path
       inkscape:connector-curvature="0"
       style="fill:#ffffff;stroke:#f44336;stroke-opacity:1"
       d="m 8,6 4,4 4,-4 2,2 -4,4 4,4 -2,2 -4,-4 -4,4 -2,-2 4,-4 -4,-4 z"
       id="path840" />
  </g>
  <g
     id="g826"
     transform="matrix(0.81887307,0,0,0.81887307,2.1735227,2.1735227)"
     style="display:none;stroke:#f44336;stroke-opacity:1;filter:url(#filter834)">
    <circle
       id="circle2"
       r="10"
       cy="12"
       cx="12"
       style="fill:#f44336;stroke:#f44336;stroke-opacity:1" />
    <path
       id="path4"
       d="m 8,6 4,4 4,-4 2,2 -4,4 4,4 -2,2 -4,-4 -4,4 -2,-2 4,-4 -4,-4 z"
       style="fill:#ffffff;stroke:#f44336;stroke-opacity:1"
       inkscape:connector-curvature="0" />
  </g>
  <g
     transform="matrix(0.81887307,0,0,0.81887307,2.1735227,2.1735227)"
     id="g832"
     style="display:inline">
    <circle
       style="fill:#f44336"
       cx="12"
       cy="12"
       r="10"
       id="circle828" />
    <path
       inkscape:connector-curvature="0"
       style="fill:#ffffff"
       d="m 8,6 4,4 4,-4 2,2 -4,4 4,4 -2,2 -4,-4 -4,4 -2,-2 4,-4 -4,-4 z"
       id="path830" />
  </g>
</svg>
