<?xml version="1.0" encoding="UTF-8" standalone="no"?>
<svg
   xmlns:dc="http://purl.org/dc/elements/1.1/"
   xmlns:cc="http://creativecommons.org/ns#"
   xmlns:rdf="http://www.w3.org/1999/02/22-rdf-syntax-ns#"
   xmlns:svg="http://www.w3.org/2000/svg"
   xmlns="http://www.w3.org/2000/svg"
   xmlns:sodipodi="http://sodipodi.sourceforge.net/DTD/sodipodi-0.dtd"
   xmlns:inkscape="http://www.inkscape.org/namespaces/inkscape"
   width="24"
   height="24"
   version="1"
   id="svg14"
   sodipodi:docname="lock.svg"
   inkscape:version="0.92.4 5da689c313, 2019-01-14">
  <metadata
     id="metadata20">
    <rdf:RDF>
      <cc:Work
         rdf:about="">
        <dc:format>image/svg+xml</dc:format>
        <dc:type
           rdf:resource="http://purl.org/dc/dcmitype/StillImage" />
      </cc:Work>
    </rdf:RDF>
  </metadata>
  <defs
     id="defs18">
    <filter
       inkscape:collect="always"
       style="color-interpolation-filters:sRGB"
       id="filter843"
       x="-0.243"
       width="1.486"
       y="-0.23707317"
       height="1.4741463">
      <feGaussianBlur
         inkscape:collect="always"
         stdDeviation="2.025"
         id="feGaussianBlur845" />
    </filter>
  </defs>
  <sodipodi:namedview
     pagecolor="#ffffff"
     bordercolor="#666666"
     borderopacity="1"
     objecttolerance="10"
     gridtolerance="10"
     guidetolerance="10"
     inkscape:pageopacity="0"
     inkscape:pageshadow="2"
     inkscape:window-width="1920"
     inkscape:window-height="1080"
     id="namedview16"
     showgrid="false"
     inkscape:zoom="9.8333333"
     inkscape:cx="-7.9322034"
     inkscape:cy="12"
     inkscape:window-x="0"
     inkscape:window-y="0"
     inkscape:window-maximized="0"
     inkscape:current-layer="svg14" />
  <g
     transform="matrix(0.79136052,0,0,0.79136052,3.2950342,3.347194)"
     id="g12"
     style="display:none;stroke:#ea882b;stroke-opacity:1;filter:url(#filter843)">
    <circle
       cx="11"
       cy="11"
       r="10"
       id="circle2"
       style="fill:#ea882b;stroke:#ea882b;stroke-opacity:1" />
    <path
       d="m 11,5.5 c -2.4175,0 -3,0.86667 -3,3 v 2 H 6.7636 C 6.3409,10.5 6,10.812 6,11.2 v 4.6 c 0,0.3875 0.34091,0.7 0.76364,0.7 h 8.4727 c 0.423,0 0.764,-0.312 0.764,-0.7 v -4.6 c 0,-0.3875 -0.34091,-0.7 -0.76364,-0.7 h -1.0545 v -2 c 0,-2.216 -0.76436,-3 -3.1818,-3 z m 0,2 c 1,0 1,-0.051032 1,1 v 2 h -2 v -2 c 0,-1 0,-1 1,-1 z"
       id="path4"
       inkscape:connector-curvature="0"
       style="opacity:0.2;stroke:#ea882b;stroke-opacity:1" />
    <path
       d="M 11,5 C 8.5825,5 8,5.8667 8,8 v 2 H 6.7636 C 6.3409,10 6,10.312 6,10.7 v 4.6 C 6,15.688 6.3409,16 6.7636,16 h 8.4727 c 0.423,0 0.764,-0.312 0.764,-0.7 v -4.6 c 0,-0.388 -0.341,-0.7 -0.764,-0.7 H 14.1818 V 8 c 0,-2.216 -0.765,-3 -3.182,-3 z m 0,2 c 1,0 1,-0.051032 1,1 v 2 H 10 V 8 c 0,-1 0,-1 1,-1 z"
       id="path6"
       inkscape:connector-curvature="0"
       style="fill:#ffffff;stroke:#ea882b;stroke-opacity:1" />
    <path
       d="M 11,1 A 10,10 0 0 0 1,11 10,10 0 0 0 1.0098,11.293 10,10 0 0 1 11,1.5 10,10 0 0 1 20.99,11.207 10,10 0 0 0 21,11 10,10 0 0 0 11,1 Z"
       id="path8"
       inkscape:connector-curvature="0"
       style="opacity:0.2;fill:#ffffff;stroke:#ea882b;stroke-opacity:1" />
    <path
       d="M 20.99,11.207 A 10,10 0 0 1 11,21 10,10 0 0 1 1.0098,11.293 10,10 0 0 0 1,11.5 a 10,10 0 0 0 10,10 10,10 0 0 0 10,-10 10,10 0 0 0 -0.0098,-0.29297 z"
       id="path10"
       inkscape:connector-curvature="0"
       style="opacity:0.2;stroke:#ea882b;stroke-opacity:1" />
  </g>
  <g
     id="g837"
     transform="matrix(0.79136052,0,0,0.79136052,3.2950342,3.347194)">
    <circle
       id="circle827"
       r="10"
       cy="11"
       cx="11"
       style="fill:#ea882b" />
    <path
       id="path829"
       d="m 11,5.5 c -2.4175,0 -3,0.86667 -3,3 v 2 H 6.7636 C 6.3409,10.5 6,10.812 6,11.2 v 4.6 c 0,0.3875 0.34091,0.7 0.76364,0.7 h 8.4727 c 0.423,0 0.764,-0.312 0.764,-0.7 v -4.6 c 0,-0.3875 -0.34091,-0.7 -0.76364,-0.7 h -1.0545 v -2 c 0,-2.216 -0.76436,-3 -3.1818,-3 z m 0,2 c 1,0 1,-0.051032 1,1 v 2 h -2 v -2 c 0,-1 0,-1 1,-1 z"
       inkscape:connector-curvature="0"
       style="opacity:0.2" />
    <path
       id="path831"
       d="M 11,5 C 8.5825,5 8,5.8667 8,8 v 2 H 6.7636 C 6.3409,10 6,10.312 6,10.7 v 4.6 C 6,15.688 6.3409,16 6.7636,16 h 8.4727 c 0.423,0 0.764,-0.312 0.764,-0.7 v -4.6 c 0,-0.388 -0.341,-0.7 -0.764,-0.7 H 14.1818 V 8 c 0,-2.216 -0.765,-3 -3.182,-3 z m 0,2 c 1,0 1,-0.051032 1,1 v 2 H 10 V 8 c 0,-1 0,-1 1,-1 z"
       inkscape:connector-curvature="0"
       style="fill:#ffffff" />
    <path
       id="path833"
       d="M 11,1 A 10,10 0 0 0 1,11 10,10 0 0 0 1.0098,11.293 10,10 0 0 1 11,1.5 10,10 0 0 1 20.99,11.207 10,10 0 0 0 21,11 10,10 0 0 0 11,1 Z"
       inkscape:connector-curvature="0"
       style="opacity:0.2;fill:#ffffff" />
    <path
       id="path835"
       d="M 20.99,11.207 A 10,10 0 0 1 11,21 10,10 0 0 1 1.0098,11.293 10,10 0 0 0 1,11.5 a 10,10 0 0 0 10,10 10,10 0 0 0 10,-10 10,10 0 0 0 -0.0098,-0.29297 z"
       inkscape:connector-curvature="0"
       style="opacity:0.2" />
  </g>
</svg>
