<?xml version="1.0" encoding="UTF-8" standalone="no"?>
<svg
   xmlns:dc="http://purl.org/dc/elements/1.1/"
   xmlns:cc="http://creativecommons.org/ns#"
   xmlns:rdf="http://www.w3.org/1999/02/22-rdf-syntax-ns#"
   xmlns:svg="http://www.w3.org/2000/svg"
   xmlns="http://www.w3.org/2000/svg"
   xmlns:sodipodi="http://sodipodi.sourceforge.net/DTD/sodipodi-0.dtd"
   xmlns:inkscape="http://www.inkscape.org/namespaces/inkscape"
   width="24"
   height="24"
   version="1"
   id="svg14"
   sodipodi:docname="logout.svg"
   inkscape:version="0.92.4 5da689c313, 2019-01-14">
  <metadata
     id="metadata20">
    <rdf:RDF>
      <cc:Work
         rdf:about="">
        <dc:format>image/svg+xml</dc:format>
        <dc:type
           rdf:resource="http://purl.org/dc/dcmitype/StillImage" />
      </cc:Work>
    </rdf:RDF>
  </metadata>
  <defs
     id="defs18">
    <filter
       inkscape:collect="always"
       style="color-interpolation-filters:sRGB"
       id="filter843"
       x="-0.243"
       width="1.486"
       y="-0.23707317"
       height="1.4741463">
      <feGaussianBlur
         inkscape:collect="always"
         stdDeviation="2.025"
         id="feGaussianBlur845" />
    </filter>
  </defs>
  <sodipodi:namedview
     pagecolor="#ffffff"
     bordercolor="#666666"
     borderopacity="1"
     objecttolerance="10"
     gridtolerance="10"
     guidetolerance="10"
     inkscape:pageopacity="0"
     inkscape:pageshadow="2"
     inkscape:window-width="1920"
     inkscape:window-height="1080"
     id="namedview16"
     showgrid="false"
     inkscape:zoom="9.8333333"
     inkscape:cx="-7.9322034"
     inkscape:cy="12"
     inkscape:window-x="0"
     inkscape:window-y="0"
     inkscape:window-maximized="0"
     inkscape:current-layer="svg14" />
  <g
     transform="matrix(0.79136052,0,0,0.79136052,3.2950342,3.347194)"
     id="g12"
     style="display:none;stroke:#7bbb36;stroke-opacity:1;filter:url(#filter843)">
    <circle
       cx="11"
       cy="11"
       r="10"
       id="circle2"
       style="fill:#7bbb36;stroke:#7bbb36;stroke-opacity:1" />
    <path
       d="m 11,4.5 c 3.8662,0 7,3.1338 7,7 0,3.8662 -3.1338,7 -7,7 -3.8662,0 -7,-3.1338 -7,-7 0,-3.8662 3.1338,-7 7,-7 z m 0,2 c -2.7615,0 -5,2.2385 -5,5 0,2.7615 2.2385,5 5,5 2.7615,0 5,-2.2385 5,-5 0,-2.7615 -2.2385,-5 -5,-5 z m 0,2 3,3 -3,3 0.01172,-2 h -1.9648 c -0.5793,0 -1.0472,-0.446 -1.0472,-1 0,-0.554 0.46788,-1 1.0469,-1 h 1.9648 z"
       id="path4"
       style="opacity:0.2;fill-rule:evenodd;stroke:#7bbb36;stroke-opacity:1"
       inkscape:connector-curvature="0" />
    <path
       d="m 11,4 c 3.8662,0 7,3.1338 7,7 0,3.8662 -3.1338,7 -7,7 C 7.1338,18 4,14.866 4,11 4,7.1338 7.1338,4 11,4 Z m 0,2 c -2.7615,0 -5,2.2385 -5,5 0,2.7615 2.2385,5 5,5 2.7615,0 5,-2.2385 5,-5 0,-2.7615 -2.2385,-5 -5,-5 z m 0,2 3,3 -3,3 0.01172,-2 h -1.9648 c -0.5793,0 -1.0472,-0.446 -1.0472,-1 0,-0.554 0.4679,-1 1.0469,-1 h 1.9648 z"
       id="path6"
       style="fill:#ffffff;fill-rule:evenodd;stroke:#7bbb36;stroke-opacity:1"
       inkscape:connector-curvature="0" />
    <path
       d="M 11,1 A 10,10 0 0 0 1,11 10,10 0 0 0 1.0098,11.293 10,10 0 0 1 11,1.5 10,10 0 0 1 20.99,11.207 10,10 0 0 0 21,11 10,10 0 0 0 11,1 Z"
       id="path8"
       style="opacity:0.2;fill:#ffffff;stroke:#7bbb36;stroke-opacity:1"
       inkscape:connector-curvature="0" />
    <path
       d="M 20.99,11.207 A 10,10 0 0 1 11,21 10,10 0 0 1 1.0098,11.293 10,10 0 0 0 1,11.5 a 10,10 0 0 0 10,10 10,10 0 0 0 10,-10 10,10 0 0 0 -0.0098,-0.29297 z"
       id="path10"
       style="opacity:0.2;stroke:#7bbb36;stroke-opacity:1"
       inkscape:connector-curvature="0" />
  </g>
  <g
     id="g837"
     transform="matrix(0.79136052,0,0,0.79136052,3.2950342,3.347194)">
    <circle
       id="circle827"
       r="10"
       cy="11"
       cx="11"
       style="fill:#7bbb36" />
    <path
       id="path829"
       d="m 11,4.5 c 3.8662,0 7,3.1338 7,7 0,3.8662 -3.1338,7 -7,7 -3.8662,0 -7,-3.1338 -7,-7 0,-3.8662 3.1338,-7 7,-7 z m 0,2 c -2.7615,0 -5,2.2385 -5,5 0,2.7615 2.2385,5 5,5 2.7615,0 5,-2.2385 5,-5 0,-2.7615 -2.2385,-5 -5,-5 z m 0,2 3,3 -3,3 0.01172,-2 h -1.9648 c -0.5793,0 -1.0472,-0.446 -1.0472,-1 0,-0.554 0.46788,-1 1.0469,-1 h 1.9648 z"
       inkscape:connector-curvature="0"
       style="opacity:0.2;fill-rule:evenodd" />
    <path
       id="path831"
       d="m 11,4 c 3.8662,0 7,3.1338 7,7 0,3.8662 -3.1338,7 -7,7 C 7.1338,18 4,14.866 4,11 4,7.1338 7.1338,4 11,4 Z m 0,2 c -2.7615,0 -5,2.2385 -5,5 0,2.7615 2.2385,5 5,5 2.7615,0 5,-2.2385 5,-5 0,-2.7615 -2.2385,-5 -5,-5 z m 0,2 3,3 -3,3 0.01172,-2 h -1.9648 c -0.5793,0 -1.0472,-0.446 -1.0472,-1 0,-0.554 0.4679,-1 1.0469,-1 h 1.9648 z"
       inkscape:connector-curvature="0"
       style="fill:#ffffff;fill-rule:evenodd" />
    <path
       id="path833"
       d="M 11,1 A 10,10 0 0 0 1,11 10,10 0 0 0 1.0098,11.293 10,10 0 0 1 11,1.5 10,10 0 0 1 20.99,11.207 10,10 0 0 0 21,11 10,10 0 0 0 11,1 Z"
       inkscape:connector-curvature="0"
       style="opacity:0.2;fill:#ffffff" />
    <path
       id="path835"
       d="M 20.99,11.207 A 10,10 0 0 1 11,21 10,10 0 0 1 1.0098,11.293 10,10 0 0 0 1,11.5 a 10,10 0 0 0 10,10 10,10 0 0 0 10,-10 10,10 0 0 0 -0.0098,-0.29297 z"
       inkscape:connector-curvature="0"
       style="opacity:0.2" />
  </g>
</svg>
